<?xml version="1.0" encoding="UTF-8" standalone="no"?>
<!-- Generator: Adobe Illustrator 16.0.0, SVG Export Plug-In . SVG Version: 6.00 Build 0)  -->

<svg
   xmlns:dc="http://purl.org/dc/elements/1.1/"
   xmlns:cc="http://creativecommons.org/ns#"
   xmlns:rdf="http://www.w3.org/1999/02/22-rdf-syntax-ns#"
   xmlns:svg="http://www.w3.org/2000/svg"
   xmlns="http://www.w3.org/2000/svg"
   xmlns:xlink="http://www.w3.org/1999/xlink"
   xmlns:sodipodi="http://sodipodi.sourceforge.net/DTD/sodipodi-0.dtd"
   xmlns:inkscape="http://www.inkscape.org/namespaces/inkscape"
   version="1.1"
   id="Layer_1"
   x="0px"
   y="0px"
   width="528.88293"
   height="262.42661"
   viewBox="0 0 528.88293 262.42661"
   enable-background="new 0 0 612 792"
   xml:space="preserve"
   sodipodi:docname="whs-logo3.svg"
   inkscape:version="0.92.3 (2405546, 2018-03-11)"><metadata
   id="metadata137"><rdf:RDF><cc:Work
       rdf:about=""><dc:format>image/svg+xml</dc:format><dc:type
         rdf:resource="http://purl.org/dc/dcmitype/StillImage" /><dc:title></dc:title></cc:Work></rdf:RDF></metadata><defs
   id="defs135">
	<defs
   id="defs3">
		<rect
   height="461.23199"
   width="612"
   y="165.384"
   id="SVGID_1_"
   x="0" />
	</defs>
	<clipPath
   id="SVGID_2_">
		<use
   id="use5"
   overflow="visible"
   xlink:href="#SVGID_1_"
   style="overflow:visible"
   x="0"
   y="0"
   width="100%"
   height="100%" />
	</clipPath>
	
	
	
	
	
	
	
	
	
	
	
	
	
	
	
	
	
	
	
	
	
	
	
	
	
	
	
	
	
	
	
	
	
	
	
	
	
	
	
	
	
	
	
	
	
	
	
	
	
	
	
	
	
	
	
	
	
	
	
	
	
</defs><sodipodi:namedview
   pagecolor="#000000"
   bordercolor="#666666"
   borderopacity="1"
   objecttolerance="10"
   gridtolerance="10"
   guidetolerance="10"
   inkscape:pageopacity="0"
   inkscape:pageshadow="2"
   inkscape:window-width="1280"
   inkscape:window-height="956"
   id="namedview133"
   showgrid="false"
   inkscape:zoom="2.3838384"
   inkscape:cx="354.46433"
   inkscape:cy="84.11979"
   inkscape:window-x="0"
   inkscape:window-y="0"
   inkscape:window-maximized="1"
   inkscape:current-layer="Layer_1" />
<path
   style="fill:#ffffff;fill-opacity:1;stroke:none;stroke-width:1px;stroke-linecap:butt;stroke-linejoin:miter;stroke-opacity:1"
   d="M 262.51339,132.88814 147.12615,21.0604 0,157.50804 97.886352,252.57645 c 7.744948,6.32555 18.351668,7.35493 35.631018,7.33312 l 223.44573,-0.20975 c 11.44297,-0.82136 18.36779,-4.56741 25.06484,-9.3437 L 486.46549,152.16878 528.88291,188.95032 527.69641,0 332.22033,0.29663 366.62887,33.51866 Z"
   id="path949"
   inkscape:connector-curvature="0"
   sodipodi:nodetypes="ccccccccccccc" />
<g
   id="g947"
   transform="translate(-27.882778,-433.63692)"><polygon
     style="fill:#fbd732"
     id="polygon848"
     points="253.453,459.111 188.363,459.111 234.344,413.794 "
     clip-path="url(#SVGID_2_)"
     transform="translate(-15.650763,228.38112)" /><polygon
     style="fill:#e8003a"
     id="polygon850"
     points="289.803,360.049 237.316,409.017 258.231,459.111 "
     clip-path="url(#SVGID_2_)"
     transform="translate(-15.650763,228.38112)" /><polygon
     style="fill:#6ac9dc"
     id="polygon852"
     points="281.521,404.836 265.396,459.111 318.543,459.111 "
     clip-path="url(#SVGID_2_)"
     transform="translate(-15.650763,228.38112)" /><polygon
     style="fill:#fbd732"
     id="polygon854"
     points="297.046,353.558 305.311,345.198 356.165,376.77 282.714,401.509 "
     clip-path="url(#SVGID_2_)"
     transform="translate(-15.650763,228.38112)" /><polygon
     style="fill:#5cb264"
     id="polygon856"
     points="288.687,404.837 323.871,454.998 356.164,419.168 299.758,401.509 "
     clip-path="url(#SVGID_2_)"
     transform="translate(-15.650763,228.38112)" /><polygon
     style="fill:#6ac9dc"
     id="polygon858"
     points="356.164,413.793 306.429,398.267 356.164,383.713 "
     clip-path="url(#SVGID_2_)"
     transform="translate(-15.650763,228.38112)" /><polygon
     style="fill:#375096"
     id="polygon860"
     points="360.346,334.372 310.78,344.49 388.411,390.504 "
     clip-path="url(#SVGID_2_)"
     transform="translate(-15.650763,228.38112)" /><polygon
     style="fill:#6ac9dc"
     id="polygon862"
     points="372.288,284.21 313.818,337.357 360.345,328.997 "
     clip-path="url(#SVGID_2_)"
     transform="translate(-15.650763,228.38112)" /><polygon
     style="fill:#e8003a"
     id="polygon864"
     points="380.051,275.85 365.123,329.594 424.684,325.259 383.634,272.864 "
     clip-path="url(#SVGID_2_)"
     transform="translate(-15.650763,228.38112)" /><polygon
     style="fill:#fbd732"
     id="polygon866"
     points="415.881,244.2 388.411,269.878 427.824,320.04 "
     clip-path="url(#SVGID_2_)"
     transform="translate(-15.650763,228.38112)" /><polygon
     style="fill:#6ac9dc"
     id="polygon868"
     points="394.903,390.504 365.123,334.372 424.683,329.594 "
     clip-path="url(#SVGID_2_)"
     transform="translate(-15.650763,228.38112)" /><polygon
     style="fill:#5cb264"
     id="polygon870"
     points="361.54,380.353 404.379,405.953 374.677,459.111 361.54,423.348 "
     clip-path="url(#SVGID_2_)"
     transform="translate(-15.650763,228.38112)" /><polygon
     style="fill:#375096"
     id="polygon872"
     points="326.904,459.111 358.553,425.14 369.303,459.111 "
     clip-path="url(#SVGID_2_)"
     transform="translate(-15.650763,228.38112)" /><path
     style="fill:#fbd732"
     inkscape:connector-curvature="0"
     id="path874"
     d="m 379.454,459.111 28.664,-49.498 31.717,23.288 -15.152,14.332 c 0,0 -12.982,14.796 -45.229,11.878"
     clip-path="url(#SVGID_2_)"
     transform="translate(-15.650763,228.38112)" /><polygon
     style="fill:#e8003a"
     id="polygon876"
     points="443.771,429.178 455.854,417.856 464.251,396 402.146,398.754 "
     clip-path="url(#SVGID_2_)"
     transform="translate(-15.650763,228.38112)" /><polygon
     style="fill:#375096"
     id="polygon878"
     points="464.251,390.504 399.16,392.893 427.824,334.372 "
     clip-path="url(#SVGID_2_)"
     transform="translate(-15.650763,228.38112)" /><polygon
     style="fill:#fbd732"
     id="polygon880"
     points="526.953,350.494 464.251,409.613 495.303,337.357 "
     clip-path="url(#SVGID_2_)"
     transform="translate(-15.650763,228.38112)" /><polygon
     style="fill:#e8003a"
     id="polygon882"
     points="433.95,335.488 467.833,383.714 490.525,334.371 "
     clip-path="url(#SVGID_2_)"
     transform="translate(-15.650763,228.38112)" /><polygon
     style="fill:#375096"
     id="polygon884"
     points="460.026,291.133 431.705,329.594 484.235,329.594 "
     clip-path="url(#SVGID_2_)"
     transform="translate(-15.650763,228.38112)" /><polygon
     style="fill:#6ac9dc"
     id="polygon886"
     points="420.869,244.978 431.705,320.04 459.681,282.12 "
     clip-path="url(#SVGID_2_)"
     transform="translate(-15.650763,228.38112)" /><polygon
     style="fill:#5cb264"
     id="polygon888"
     points="452.073,211.246 430.286,247.212 392.244,211.246 "
     clip-path="url(#SVGID_2_)"
     transform="translate(-15.650763,228.38112)" /><polygon
     style="fill:#fbd732"
     id="polygon890"
     points="457.971,271.075 454.494,215.396 433.949,251.708 "
     clip-path="url(#SVGID_2_)"
     transform="translate(-15.650763,228.38112)" /><polygon
     style="fill:#e8003a"
     id="polygon892"
     points="481.813,254.82 459.681,221.621 462.237,277.991 "
     clip-path="url(#SVGID_2_)"
     transform="translate(-15.650763,228.38112)" /><polygon
     style="fill:#fbd732"
     id="polygon894"
     points="504.639,211.246 460.72,211.246 487.693,253.437 "
     clip-path="url(#SVGID_2_)"
     transform="translate(-15.650763,228.38112)" /><polygon
     style="fill:#e8003a"
     id="polygon896"
     points="564.122,267.271 511.901,211.246 564.122,211.246 "
     clip-path="url(#SVGID_2_)"
     transform="translate(-15.650763,228.38112)" /><polygon
     style="fill:#5cb264"
     id="polygon898"
     points="562.126,273.981 509.481,215.396 491.765,260.007 "
     clip-path="url(#SVGID_2_)"
     transform="translate(-15.650763,228.38112)" /><polygon
     style="fill:#fbd732"
     id="polygon900"
     points="492.881,323.391 491.765,265.887 561.009,279.028 "
     clip-path="url(#SVGID_2_)"
     transform="translate(-15.650763,228.38112)" /><polygon
     style="fill:#5cb264"
     id="polygon902"
     points="464.252,288.02 485.965,261.391 488.039,326.446 "
     clip-path="url(#SVGID_2_)"
     transform="translate(-15.650763,228.38112)" /><polygon
     style="fill:#5cb264"
     id="polygon904"
     points="526.952,346.314 495.602,329.594 524.006,308.424 "
     clip-path="url(#SVGID_2_)"
     transform="translate(-15.650763,228.38112)" /><polygon
     style="fill:#e8003a"
     id="polygon906"
     points="529.539,306.695 532.998,339.895 564.122,306.695 564.122,304.274 "
     clip-path="url(#SVGID_2_)"
     transform="translate(-15.650763,228.38112)" /><polygon
     style="fill:#6ac9dc"
     id="polygon908"
     points="564.122,283.626 538.012,301.229 564.122,298.395 "
     clip-path="url(#SVGID_2_)"
     transform="translate(-15.650763,228.38112)" /><polygon
     style="fill:#375096"
     id="polygon910"
     points="564.122,377.244 532.998,349.578 564.122,314.303 "
     clip-path="url(#SVGID_2_)"
     transform="translate(-15.650763,228.38112)" /><path
     style="fill:#757574"
     inkscape:connector-curvature="0"
     id="path912"
     d="m 53.405,363.978 c 0,0 73.45,70.119 93.755,87.438 20.305,17.317 40.606,0 40.606,0 l 43.846,-42.897 -10.613,-10.592 4.472,-4.482 10.668,10.646 63.62,-62.244 L 190,235.453 l -63.228,59.493 11.135,11.111 -4.473,4.482 -11.205,-11.183 m 48.732,48.634 -25.018,-24.967 4.472,-4.482 25.018,24.968 z m 37.529,37.451 -25.018,-24.968 4.471,-4.481 25.019,24.966 z"
     clip-path="url(#SVGID_2_)"
     transform="translate(-15.650763,228.38112)" /></g></svg>